<?xml version="1.0" standalone="no"?>
<!DOCTYPE svg PUBLIC "-//W3C//DTD SVG 20010904//EN"
 "http://www.w3.org/TR/2001/REC-SVG-20010904/DTD/svg10.dtd">
<svg version="1.0" xmlns="http://www.w3.org/2000/svg"
 width="1351.000000pt" height="1351.000000pt" viewBox="0 0 1351.000000 1351.000000"
 preserveAspectRatio="xMidYMid meet">
<metadata>
Created by potrace 1.14, written by Peter Selinger 2001-2017
</metadata>
<g transform="translate(0.000000,1351.000000) scale(0.100000,-0.100000)"
fill="#000000" stroke="none">
<path d="M6486 11360 c-10 -27 -84 -233 -136 -380 -28 -80 -54 -148 -58 -151
-4 -4 -63 20 -132 53 -69 33 -152 72 -185 88 -33 15 -94 44 -135 63 -41 20
-76 34 -78 33 -1 -2 36 -84 84 -182 103 -214 155 -326 157 -338 1 -5 -20 -17
-48 -27 -131 -47 -348 -124 -417 -147 -43 -14 -78 -29 -78 -32 0 -3 35 -17 78
-32 80 -27 249 -87 387 -137 52 -19 79 -34 77 -42 -5 -18 -33 -79 -146 -313
-53 -109 -95 -200 -94 -202 2 -1 50 20 106 47 57 27 105 49 107 49 3 0 295
139 307 147 5 2 12 -6 17 -19 5 -13 16 -41 24 -63 9 -22 29 -78 46 -125 29
-84 107 -301 117 -330 4 -10 11 -1 20 25 8 22 18 49 23 60 5 11 44 118 86 237
l77 216 42 -18 c22 -10 142 -66 265 -124 123 -58 225 -105 226 -104 1 2 -53
118 -121 258 -68 140 -123 260 -123 265 -1 6 34 22 77 37 42 14 156 54 252 88
96 34 186 65 200 70 25 7 25 7 -11 22 -20 9 -47 19 -60 22 -13 4 -40 13 -59
21 -19 8 -114 42 -210 75 -96 34 -179 65 -183 69 -8 8 29 87 194 430 26 53 45
97 44 99 -1 2 -73 -31 -160 -73 -87 -41 -159 -75 -161 -75 -2 0 -49 -23 -105
-50 -56 -28 -104 -49 -105 -47 -2 2 -43 111 -90 243 -47 131 -92 255 -99 274
-9 24 -15 30 -19 20z"/>
<path d="M4635 10726 c-28 -13 -58 -32 -67 -42 -32 -36 -50 -97 -51 -166 0
-57 6 -79 37 -144 20 -42 35 -78 34 -80 -2 -1 -57 -33 -123 -70 -213 -120
-479 -302 -640 -438 -33 -28 -71 -60 -84 -71 -35 -27 -349 -341 -391 -390
-400 -461 -666 -924 -858 -1490 -62 -183 -130 -450 -157 -615 -3 -19 -8 -42
-10 -50 -2 -8 -7 -40 -10 -70 -3 -30 -8 -68 -11 -84 -22 -110 -32 -320 -29
-616 1 -179 5 -334 8 -345 3 -11 8 -54 12 -95 6 -61 26 -191 59 -385 33 -188
171 -639 246 -800 5 -11 32 -72 60 -135 85 -190 214 -424 320 -580 9 -14 37
-54 61 -90 24 -36 49 -72 56 -80 6 -8 47 -61 90 -116 183 -238 426 -484 697
-709 27 -22 56 -44 65 -49 9 -5 18 -12 21 -16 13 -16 209 -150 220 -150 7 0
56 21 108 46 153 73 264 107 352 108 65 0 84 -5 143 -34 126 -62 153 -134 158
-421 1 -103 2 -108 28 -126 42 -31 55 -38 47 -25 -10 17 -11 17 152 -38 136
-45 271 -84 332 -96 14 -3 39 -9 55 -14 17 -5 41 -11 55 -14 14 -2 65 -12 115
-21 49 -9 101 -19 115 -21 14 -2 34 -5 45 -7 11 -3 52 -8 90 -12 39 -4 84 -8
100 -10 197 -24 728 -24 854 0 9 1 48 6 86 9 39 4 77 9 85 11 8 2 33 6 55 10
35 4 160 27 220 39 113 23 436 112 490 135 70 31 108 41 119 32 8 -7 21 -2 43
17 31 27 31 27 33 137 3 219 28 328 86 374 140 111 291 98 597 -50 l79 -38
106 77 c221 159 344 264 547 467 178 178 218 224 378 425 41 51 171 239 219
315 212 337 385 719 488 1075 12 41 28 95 35 120 43 149 84 359 111 560 4 30
8 66 10 80 20 145 27 706 11 865 -4 44 -9 98 -11 120 -6 65 -41 288 -59 370
-2 11 -8 38 -12 60 -5 22 -9 45 -11 50 -124 525 -333 1011 -617 1435 -64 95
-212 297 -227 310 -3 3 -16 19 -29 35 -110 144 -334 371 -561 569 -167 145
-559 409 -742 498 -21 10 -38 21 -38 24 0 3 16 40 36 81 31 65 37 86 37 144 0
93 -30 152 -98 194 -45 28 -55 30 -144 30 -89 0 -99 -3 -141 -29 -63 -41 -93
-77 -153 -186 -28 -52 -52 -97 -53 -100 0 -3 -17 -39 -36 -80 -66 -141 -150
-385 -164 -480 -3 -19 -10 -55 -15 -78 -24 -109 -6 -274 35 -337 23 -35 120
-109 124 -96 3 10 94 -33 227 -108 94 -53 328 -216 425 -297 112 -93 323 -300
406 -399 447 -532 711 -1181 761 -1875 12 -165 6 -444 -12 -595 -12 -102 -17
-140 -21 -164 -94 -519 -274 -956 -562 -1360 -41 -58 -93 -128 -116 -156 -22
-27 -50 -61 -61 -75 -31 -38 -306 -313 -341 -341 -17 -13 -62 -49 -100 -80
-79 -64 -264 -193 -268 -188 -10 12 -23 118 -20 164 4 68 25 110 64 130 38 19
67 7 76 -33 12 -54 16 -62 29 -62 33 0 76 90 80 168 3 54 -29 105 -82 132 -61
31 -122 28 -191 -8 -52 -27 -747 -547 -809 -605 -31 -29 -51 -69 -47 -94 1 -7
2 -19 3 -27 0 -8 16 -30 34 -51 38 -43 94 -56 140 -32 27 14 77 12 60 -3 -14
-13 -160 -55 -328 -96 -16 -4 -34 -8 -40 -10 -5 -1 -23 -5 -40 -8 -16 -3 -41
-8 -55 -11 -246 -49 -658 -63 -915 -29 -16 2 -50 6 -75 9 -25 3 -56 7 -70 10
-14 3 -52 10 -85 16 -120 21 -307 71 -434 115 -10 3 -11 8 -4 15 6 6 27 4 60
-7 31 -10 62 -14 79 -10 30 8 93 68 95 91 1 8 2 21 3 28 4 28 -19 70 -58 103
-98 84 -775 588 -811 605 -55 25 -93 28 -144 13 -79 -23 -125 -88 -116 -163 6
-48 37 -122 57 -139 25 -20 48 -4 48 34 0 75 92 76 132 1 21 -41 26 -154 8
-201 -5 -15 -6 -26 -3 -26 4 0 2 -5 -4 -11 -9 -9 -37 6 -110 56 -300 208 -583
489 -800 796 -116 165 -257 419 -327 589 -15 36 -31 74 -36 85 -17 40 -63 168
-70 199 -5 17 -20 72 -35 121 -15 50 -29 99 -31 110 -2 11 -6 29 -8 40 -45
213 -58 303 -72 505 -12 168 -7 471 10 580 2 14 7 48 10 75 7 55 9 69 32 195
28 156 125 481 180 605 10 22 18 42 19 45 11 36 124 262 177 354 205 353 504
692 831 945 110 85 314 215 438 280 117 62 135 69 124 51 -18 -30 36 11 97 73
49 49 63 99 63 232 0 124 -4 152 -39 286 -43 165 -96 301 -193 497 -117 237
-180 294 -328 299 -67 2 -89 -2 -130 -21z"/>
<path d="M4329 8432 c-13 -2 -15 -126 -13 -1025 0 -562 4 -1049 8 -1082 3 -33
8 -82 11 -110 9 -82 21 -168 30 -215 3 -14 10 -52 16 -85 33 -185 113 -461
194 -665 54 -136 174 -365 260 -495 117 -178 221 -302 375 -450 305 -292 698
-500 1160 -615 148 -37 180 -36 363 15 546 149 944 396 1298 805 12 14 40 50
63 80 22 30 43 57 46 60 35 35 162 247 233 387 134 270 250 618 293 880 2 15
6 37 9 49 3 12 7 39 10 60 4 21 8 49 10 60 2 12 6 46 10 75 3 30 8 68 11 84
10 69 16 480 17 1307 2 774 0 878 -13 879 -36 3 -4378 4 -4391 1z"/>
</g>
</svg>
